<?xml version="1.0" encoding="UTF-8"?>
<svg version="1.1" xmlns="http://www.w3.org/2000/svg" width="172" height="148">
<path d="M0 0 C56.76 0 113.52 0 172 0 C172 48.84 172 97.68 172 148 C115.24 148 58.48 148 0 148 C0 99.16 0 50.32 0 0 Z " fill="#FEFDFD" transform="translate(0,0)"/>
<path d="M0 0 C2.4375 2.25 2.4375 2.25 3.1875 4.875 C0.73605434 15.90650545 -7.56960524 23.49390302 -16.6875 29.375 C-25.7820023 34.76898067 -35.18183232 38.31462128 -45.5625 40.25 C-44.01745667 34.91875159 -41.62675201 30.31942268 -38.9375 25.5 C-38.49599609 24.7073877 -38.05449219 23.91477539 -37.59960938 23.09814453 C-34.17344279 17.0727746 -30.55966917 11.12468954 -25.5625 6.25 C-24.9025 6.25 -24.2425 6.25 -23.5625 6.25 C-24.12111029 11.26769245 -26.48732786 14.98750141 -29 19.25 C-32.69038679 25.54777665 -32.69038679 25.54777665 -35.5625 32.25 C-24.72824057 29.50218058 -16.12169671 23.28752956 -9.5625 14.25 C-7.73677755 11.051963 -7.35718227 8.94571923 -7.5625 5.25 C-13.14739856 1.69510723 -18.43732375 1.70927817 -24.9375 1.5625 C-25.95972656 1.52833984 -26.98195313 1.49417969 -28.03515625 1.45898438 C-30.54416114 1.37691412 -33.05283465 1.30763124 -35.5625 1.25 C-35.5625 0.59 -35.5625 -0.07 -35.5625 -0.75 C-24.71544617 -6.06284269 -10.75630885 -5.28380084 0 0 Z " fill="#171382" transform="translate(62.5625,64.75)"/>
<path d="M0 0 C0 0.66 0 1.32 0 2 C-1.59328125 2.09087891 -1.59328125 2.09087891 -3.21875 2.18359375 C-13.63715103 2.79270238 -13.63715103 2.79270238 -24 4 C-21.91976013 9.48426874 -19.28768551 13.55936411 -15.5625 18.0625 C-6.26392086 29.46925903 -6.26392086 29.46925903 -5.375 34.625 C-6 38 -6 38 -8.75 40.375 C-14.59625614 43.29812807 -19.75404927 43.18302922 -26.1875 43.1875 C-27.5497168 43.20586914 -27.5497168 43.20586914 -28.93945312 43.22460938 C-34.93091828 43.2374758 -40.19725243 42.49958645 -46 41 C-46 40.34 -46 39.68 -46 39 C-45.34515625 38.98018066 -44.6903125 38.96036133 -44.015625 38.93994141 C-41.01005552 38.84389478 -38.00510669 38.73454216 -35 38.625 C-33.97003906 38.5940625 -32.94007812 38.563125 -31.87890625 38.53125 C-25.96181529 38.30511914 -20.68254481 37.68017551 -15 36 C-15.29279087 30.43697344 -18.86237987 27.0970053 -22.3125 23.0625 C-32.97601569 10.41507442 -32.97601569 10.41507442 -33.0625 5.3125 C-32 2 -32 2 -29.8125 0.125 C-20.29445074 -3.6822197 -9.72620062 -2.3629815 0 0 Z " fill="#FF7E08" transform="translate(103,52)"/>
<path d="M0 0 C1.46650366 2.93300732 1.36440295 4.72037344 1 8 C-0.32824592 10.93643605 -2.0605804 13.43415288 -4 16 C-4.42667969 16.5775 -4.85335937 17.155 -5.29296875 17.75 C-9.32842503 22.42377242 -14.4398598 25.123236 -19.8125 28 C-20.57852539 28.41048584 -21.34455078 28.82097168 -22.13378906 29.24389648 C-26.31537046 31.39552538 -26.31537046 31.39552538 -28 32 C-28.66 31.67 -29.32 31.34 -30 31 C-29.38253906 30.52691406 -28.76507813 30.05382813 -28.12890625 29.56640625 C-16.55389708 20.64816138 -16.55389708 20.64816138 -8 9 C-7.74803871 6.29046449 -7.74803871 6.29046449 -8 4 C-12.91442612 1.45484458 -17.9039931 1.55846879 -23.3125 1.375 C-24.24384766 1.33632813 -25.17519531 1.29765625 -26.13476562 1.2578125 C-28.42298407 1.16393687 -30.71120295 1.07825491 -33 1 C-33 0.34 -33 -0.32 -33 -1 C-21.59625686 -5.7304416 -11.35177038 -4.75594049 0 0 Z " fill="#FF1B11" transform="translate(79,25)"/>
<path d="M0 0 C1.29512034 7.31805865 2.37727768 14.5928819 3 22 C0.69 22 -1.62 22 -4 22 C-4.33 16.72 -4.66 11.44 -5 6 C-5.66 6 -6.32 6 -7 6 C-7.28875 6.598125 -7.5775 7.19625 -7.875 7.8125 C-9 10 -9 10 -11 13 C-9.35 13 -7.7 13 -6 13 C-6 13.99 -6 14.98 -6 16 C-7.2375 16.061875 -8.475 16.12375 -9.75 16.1875 C-14.26020181 16.7088193 -15.21298728 18.49375819 -18 22 C-21.75 22.3125 -21.75 22.3125 -25 22 C-23.04715996 19.28772217 -21.04975195 16.63919824 -19 14 C-18.33218506 13.1322998 -18.33218506 13.1322998 -17.65087891 12.24707031 C-16.14469888 10.3116215 -14.60729033 8.40472745 -13.0625 6.5 C-12.57297852 5.86433105 -12.08345703 5.22866211 -11.57910156 4.57373047 C-7.99355928 0.23538976 -5.86921836 -0.76395333 0 0 Z " fill="#1A1682" transform="translate(89,105)"/>
<path d="M0 0 C3.625 -0.1875 3.625 -0.1875 7 0 C7.50866669 2.35258344 8.0070625 4.70661404 8.5 7.0625 C8.64308594 7.71927734 8.78617188 8.37605469 8.93359375 9.05273438 C9.83952455 13.43139988 10.14031146 17.50418704 10 22 C8.02 22 6.04 22 4 22 C3.08342019 16.61509359 2.88861841 11.45769811 3 6 C2.195625 6.804375 1.39125 7.60875 0.5625 8.4375 C-0.625 9.625 -1.8125 10.8125 -3 12 C-1.68 12.33 -0.36 12.66 1 13 C1 13.99 1 14.98 1 16 C-0.2375 16.061875 -1.475 16.12375 -2.75 16.1875 C-6.26209656 16.59416381 -6.74405591 16.69136154 -9.125 19.5625 C-10.053125 20.7690625 -10.053125 20.7690625 -11 22 C-14.25 22.3125 -14.25 22.3125 -17 22 C-15.66347623 19.08376603 -14.15606408 16.83123238 -12.03125 14.43359375 C-11.46019531 13.78326172 -10.88914063 13.13292969 -10.30078125 12.46289062 C-9.70652344 11.79451172 -9.11226562 11.12613281 -8.5 10.4375 C-7.32138959 9.10421295 -6.14424677 7.76962676 -4.96875 6.43359375 C-4.18661133 5.55272095 -4.18661133 5.55272095 -3.38867188 4.65405273 C-1.8132734 2.83926466 -1.8132734 2.83926466 0 0 Z " fill="#171381" transform="translate(144,105)"/>
<path d="M0 0 C1.46373047 0.01353516 1.46373047 0.01353516 2.95703125 0.02734375 C4.06111328 0.04474609 4.06111328 0.04474609 5.1875 0.0625 C5.1875 1.0525 5.1875 2.0425 5.1875 3.0625 C2.72733438 3.81947404 0.97374089 4.04824939 -1.625 3.875 C-6.00062369 4.13238963 -8.17628507 5.63835671 -11.8125 8.0625 C-13.17873674 10.79497348 -12.940926 13.04448902 -12.8125 16.0625 C-11.07293342 17.80206658 -8.6188378 17.43440386 -6.25 17.625 C-5.23808594 17.70878906 -4.22617187 17.79257813 -3.18359375 17.87890625 C-2.00990234 17.96978516 -2.00990234 17.96978516 -0.8125 18.0625 C-1.4725 19.3825 -2.1325 20.7025 -2.8125 22.0625 C-13.48484043 22.67526596 -13.48484043 22.67526596 -18.0625 20.5625 C-20.03836415 17.73983694 -20.5816559 15.61518464 -20.375 12.16015625 C-19.02417497 7.12270459 -14.9979928 3.85282854 -10.8125 1.0625 C-7.16940817 0.0889679 -3.75904788 -0.04528973 0 0 Z " fill="#130F80" transform="translate(62.8125,104.9375)"/>
<path d="M0 0 C7.59 0 15.18 0 23 0 C22.01 1.32 21.02 2.64 20 4 C16.3125 4.25 16.3125 4.25 13 4 C12.89042969 4.54527344 12.78085938 5.09054688 12.66796875 5.65234375 C11.48990063 11.25535065 9.912965 16.6054387 8 22 C6.02 22 4.04 22 2 22 C3.24028238 15.82777121 4.89603589 9.93317878 7 4 C4.36 4 1.72 4 -1 4 C-0.67 2.68 -0.34 1.36 0 0 Z " fill="#1B1884" transform="translate(96,105)"/>
<path d="M0 0 C2.31 0 4.62 0 7 0 C8.29512034 7.31805865 9.37727768 14.5928819 10 22 C7.69 22 5.38 22 3 22 C2.67 16.06 2.34 10.12 2 4 C1.34 3.67 0.68 3.34 0 3 C1.98 2.34 3.96 1.68 6 1 C4.02 1 2.04 1 0 1 C0 0.67 0 0.34 0 0 Z " fill="#2E2A8C" transform="translate(82,105)"/>
<path d="M0 0 C1.98 0 3.96 0 6 0 C4.56006454 7.72329019 1.94467554 14.7282249 -1 22 C-2.98 22 -4.96 22 -7 22 C-6.23754579 17.18399177 -4.58720144 12.75384298 -2.9375 8.1875 C-2.65583984 7.39923828 -2.37417969 6.61097656 -2.08398438 5.79882812 C-1.39241462 3.86477711 -0.69662722 1.93223512 0 0 Z " fill="#171282" transform="translate(123,105)"/>
<path d="M0 0 C0.99 0.66 1.98 1.32 3 2 C-4.92 2.495 -4.92 2.495 -13 3 C-9.37 3.33 -5.74 3.66 -2 4 C-2 4.33 -2 4.66 -2 5 C-8.93 5 -15.86 5 -23 5 C-23 4.34 -23 3.68 -23 3 C-15.59568324 -0.62660413 -8.11549559 -0.74127303 0 0 Z " fill="#1F1D85" transform="translate(50,61)"/>
<path d="M0 0 C7.59 0 15.18 0 23 0 C21.68 1.32 20.36 2.64 19 4 C16.70703125 3.75390625 16.70703125 3.75390625 14 3 C11.56333235 2.93298494 9.12498258 2.91471979 6.6875 2.9375 C5.43324219 2.94652344 4.17898437 2.95554687 2.88671875 2.96484375 C1.93410156 2.97644531 0.98148437 2.98804687 0 3 C0 2.01 0 1.02 0 0 Z " fill="#2A288A" transform="translate(96,105)"/>
<path d="M0 0 C0.66 0 1.32 0 2 0 C2.1953125 6.0546875 2.1953125 6.0546875 2 8 C1.34 8.66 0.68 9.32 0 10 C0 9.01 0 8.02 0 7 C-1.65 7 -3.3 7 -5 7 C-4.21654285 5.82780457 -3.42297164 4.66236332 -2.625 3.5 C-2.18414062 2.8503125 -1.74328125 2.200625 -1.2890625 1.53125 C-0.65097656 0.77328125 -0.65097656 0.77328125 0 0 Z " fill="#DFDFEB" transform="translate(145,111)"/>
<path d="M0 0 C2.97 0 5.94 0 9 0 C8.34 1.32 7.68 2.64 7 4 C3.04 4 -0.92 4 -5 4 C-5 3.67 -5 3.34 -5 3 C-0.545 2.505 -0.545 2.505 4 2 C2.68 1.34 1.36 0.68 0 0 Z " fill="#3C3B90" transform="translate(53,123)"/>
<path d="M0 0 C1.98 0 3.96 0 6 0 C5.67 1.32 5.34 2.64 5 4 C4.67 3.34 4.34 2.68 4 2 C3.01 2 2.02 2 1 2 C0.67 3.65 0.34 5.3 0 7 C-0.66 7 -1.32 7 -2 7 C-1.34 4.69 -0.68 2.38 0 0 Z " fill="#38378F" transform="translate(123,105)"/>
<path d="M0 0 C0.93423645 3.01031744 1.04449911 3.86650268 0 7 C-1.98 7 -3.96 7 -6 7 C-6 6.01 -6 5.02 -6 4 C-3.525 4.495 -3.525 4.495 -1 5 C-0.67 3.35 -0.34 1.7 0 0 Z " fill="#2E2C8B" transform="translate(122,120)"/>
<path d="M0 0 C0.66 1.32 1.32 2.64 2 4 C0.02 4.33 -1.96 4.66 -4 5 C-4 4.01 -4 3.02 -4 2 C-2.68 1.34 -1.36 0.68 0 0 Z " fill="#0D0A7D" transform="translate(32,96)"/>
<path d="M0 0 C0.33 0 0.66 0 1 0 C1 2.31 1 4.62 1 7 C-0.98 7 -2.96 7 -5 7 C-4.67 6.34 -4.34 5.68 -4 5 C-3.01 5 -2.02 5 -1 5 C-0.67 3.35 -0.34 1.7 0 0 Z " fill="#464495" transform="translate(153,120)"/>
</svg>
