<?xml version="1.0" encoding="UTF-8"?>
<svg version="1.1" xmlns="http://www.w3.org/2000/svg" width="357" height="141">
<path d="M0 0 C117.81 0 235.62 0 357 0 C357 46.53 357 93.06 357 141 C239.19 141 121.38 141 0 141 C0 94.47 0 47.94 0 0 Z " fill="#FDFDFD" transform="translate(0,0)"/>
<path d="M0 0 C3.3 0 6.6 0 10 0 C10.49628906 0.99257813 10.99257813 1.98515625 11.50390625 3.0078125 C11.82939453 3.65862793 12.15488281 4.30944336 12.49023438 4.97998047 C13.20950447 6.4188482 13.9282482 7.85797917 14.64648438 9.29736328 C16.44884158 12.90764052 18.25805376 16.51393026 20.08984375 20.109375 C20.41202881 20.74472168 20.73421387 21.38006836 21.06616211 22.03466797 C21.95821051 23.79264466 22.85401379 25.54871452 23.75 27.3046875 C25 30 25 30 25 32 C25.66 32 26.32 32 27 32 C27.37769531 30.76378906 27.75539063 29.52757812 28.14453125 28.25390625 C30.14991378 22.23775866 32.9059435 16.62623167 35.6875 10.9375 C36.19861328 9.88111328 36.70972656 8.82472656 37.23632812 7.73632812 C38.48603874 5.15515013 39.74067122 2.5764953 41 0 C44.3 0 47.6 0 51 0 C48 2 48 2 46 2 C46.11794522 7.10881026 46.24217047 12.21741364 46.37231445 17.32592773 C46.41572573 19.06514288 46.45739612 20.80440235 46.49731445 22.54370117 C46.55486768 25.03838488 46.6186042 27.5328441 46.68359375 30.02734375 C46.70030624 30.80963852 46.71701874 31.59193329 46.73423767 32.39793396 C46.50648731 35.99871781 46.50648731 35.99871781 48 39 C50.33297433 39.04092937 52.66705225 39.04241723 55 39 C55.31751221 38.21874756 55.63502441 37.43749512 55.9621582 36.63256836 C57.15255133 33.70445745 58.34353749 30.77658864 59.53491211 27.84887695 C60.04816683 26.58725333 60.56119242 25.32553646 61.07397461 24.0637207 C66.31857991 11.15902975 66.31857991 11.15902975 69 5 C71.59197246 7.59197246 72.47194267 10.50028951 73.71484375 13.87109375 C74.24140772 15.26372056 74.76810456 16.65629714 75.29492188 18.04882812 C76.11821322 20.24451741 76.93885833 22.44115069 77.7565918 24.63891602 C78.54828049 26.76064171 79.3497923 28.87845771 80.15234375 30.99609375 C80.39307114 31.65242294 80.63379852 32.30875214 80.88182068 32.98497009 C82.22553171 36.51708915 83.25525942 38.25525942 86 41 C82.37 41 78.74 41 75 41 C75.66 40.67 76.32 40.34 77 40 C76.01 36.37 75.02 32.74 74 29 C70.04 29 66.08 29 62 29 C60.68373308 32.61973402 60 35.09567131 60 39 C60.99 39.33 61.98 39.66 63 40 C63 40.66 63 41.32 63 42 C57.39 42 51.78 42 46 42 C45.34 43.65 44.68 45.3 44 47 C42.2734375 48.58203125 42.2734375 48.58203125 40.375 49.8125 C39.74335937 50.23144531 39.11171875 50.65039062 38.4609375 51.08203125 C37.97882813 51.38496094 37.49671875 51.68789062 37 52 C39.62711448 56.94515667 43.26645294 60.87775489 47 65 C49.4294516 61.3558226 49.16179575 59.28758728 49 55 C47.68 54.34 46.36 53.68 45 53 C48.3 53 51.6 53 55 53 C55.33 51.68 55.66 50.36 56 49 C61.63390764 43.94392904 61.63390764 43.94392904 65.09375 44.0859375 C66.28484375 44.22902344 66.28484375 44.22902344 67.5 44.375 C68.2940625 44.46523437 69.088125 44.55546875 69.90625 44.6484375 C72 45 72 45 74 46 C74 48.31 74 50.62 74 53 C73.360625 52.195625 72.72125 51.39125 72.0625 50.5625 C70.59396498 48.7249496 70.59396498 48.7249496 69 47 C64.33439624 46.60443117 64.33439624 46.60443117 60 48.0625 C58.76109163 50.46288496 58.41577764 52.42381339 58.890625 55.09765625 C61.07401336 58.84170602 65.27037428 60.41082439 69.01953125 62.32421875 C71.95320562 63.97368966 73.9142808 65.36802101 76 68 C76.93282664 72.10590625 76.38374517 75.96163071 74.9375 79.875 C71.41202296 83.74165224 67.47951782 84.84694643 62.375 85.375 C58.63182643 84.95909183 56.78926061 84.54314938 54 82 C53.1875 78.3125 53.1875 78.3125 53 75 C52.2575 75.04125 51.515 75.0825 50.75 75.125 C48 75 48 75 46 73.8125 C45.01 73.4103125 45.01 73.4103125 44 73 C41.44496043 74.28288757 41.44496043 74.28288757 39 76 C34.22876389 77.74945324 29.45321232 77.55892782 24.75 75.75 C21.90975478 73.94257122 20.4674252 73.01637402 19 70 C18.16896441 63.55947419 18.16896441 63.55947419 19.94921875 60.21875 C22.50250434 56.93250231 25.02335104 55.13618542 29 54 C28.67 53.319375 28.34 52.63875 28 51.9375 C26.7757169 48.34116838 26.60175887 45.78329077 27 42 C29.44463435 37.20475569 32.30718964 34.59602275 37 32 C37.99 32 38.98 32 40 32 C39.67 24.74 39.34 17.48 39 10 C34.38 19.9 29.76 29.8 25 40 C24.34 40 23.68 40 23 40 C18.38 30.1 13.76 20.2 9 10 C8.36216813 17.01615054 7.86103796 23.69416459 7.9375 30.6875 C7.94426758 31.90083008 7.94426758 31.90083008 7.95117188 33.13867188 C7.96273288 35.09248151 7.98065596 37.04625193 8 39 C9.32 39.66 10.64 40.32 12 41 C8.04 41 4.08 41 0 41 C0.99 40.01 1.98 39.02 3 38 C5.8686952 30.94787134 5.23220995 22.88859134 5.125 15.4375 C5.11597656 14.23802734 5.10695313 13.03855469 5.09765625 11.80273438 C5.07427412 8.86827691 5.0415028 5.93424766 5 3 C2.525 2.01 2.525 2.01 0 1 C0 0.67 0 0.34 0 0 Z " fill="#9EB3D2" transform="translate(28,32)"/>
<path d="M0 0 C2.34326172 0.20507812 2.34326172 0.20507812 5 1 C6.41064453 3.02929687 6.41064453 3.02929687 7.5078125 5.71875 C7.9193457 6.71519531 8.33087891 7.71164063 8.75488281 8.73828125 C10.87786701 14.2996673 12.93120492 19.87322478 14.875 25.5 C15.29007812 26.6653125 15.70515625 27.830625 16.1328125 29.03125 C16.51953125 30.145 16.90625 31.25875 17.3046875 32.40625 C17.65515137 33.40978516 18.00561523 34.41332031 18.36669922 35.44726562 C19 38 19 38 18 41 C17.113125 40.175 16.22625 39.35 15.3125 38.5 C13.21400704 36.77588606 12.12230158 36.02982965 9.4375 35.375 C5.09001373 36.48974007 2.849813 39.98057055 0.08203125 43.30078125 C-0.60503906 44.10902344 -1.29210937 44.91726562 -2 45.75 C-2.639375 46.52859375 -3.27875 47.3071875 -3.9375 48.109375 C-6.30722049 50.28161878 -7.84550174 50.67140643 -11 51 C-11.4125 50.08476563 -11.825 49.16953125 -12.25 48.2265625 C-15.04240325 41.68006539 -15.04240325 41.68006539 -19.9296875 36.9375 C-21.87688583 36.60036679 -21.87688583 36.60036679 -23.8671875 36.453125 C-28.28655829 35.51421106 -31.65577607 31.8952309 -35 29 C-31.02542702 25.69422536 -26.68044772 24.24256454 -21.875 22.4765625 C-18.58328505 20.78598064 -17.20612868 18.92300488 -15 16 C-13.10546875 14.8046875 -13.10546875 14.8046875 -11.1875 13.875 C-5.68027726 10.68225736 -3.03809751 5.42110525 0 0 Z " fill="#EE893D" transform="translate(292,22)"/>
<path d="M0 0 C1.921875 -0.296875 1.921875 -0.296875 5.671875 0.453125 C8.64029678 3.27782431 10.99003861 6.46023288 13.39648438 9.76660156 C16.14554182 13.40184061 19.21852048 16.78275658 22.21801758 20.21166992 C25.671875 24.23550346 25.671875 24.23550346 25.671875 26.453125 C26.331875 26.453125 26.991875 26.453125 27.671875 26.453125 C27.62009581 22.847776 27.52504483 19.24484074 27.421875 15.640625 C27.40769531 14.61646484 27.39351563 13.59230469 27.37890625 12.53710938 C27.33056641 11.06274414 27.33056641 11.06274414 27.28125 9.55859375 C27.26030273 8.65262451 27.23935547 7.74665527 27.21777344 6.81323242 C26.80707029 3.88346915 26.80707029 3.88346915 22.671875 1.453125 C26.631875 1.453125 30.591875 1.453125 34.671875 1.453125 C33.351875 2.443125 32.031875 3.433125 30.671875 4.453125 C30.02533292 7.73946104 30.02533292 7.73946104 30.0625 11.52734375 C30.04596375 12.2111763 30.02942749 12.89500885 30.01239014 13.5995636 C29.9638718 15.78000836 29.94253309 17.9597557 29.921875 20.140625 C29.89371815 21.62047787 29.8637911 23.1002982 29.83203125 24.58007812 C29.75811513 28.20427483 29.70856248 31.82833874 29.671875 35.453125 C29.011875 35.453125 28.351875 35.453125 27.671875 35.453125 C25.94855051 33.42586321 24.33365016 31.38782014 22.734375 29.265625 C18.76628171 24.0988994 14.71092561 19.03610039 10.484375 14.078125 C10.00299072 13.51327393 9.52160645 12.94842285 9.02563477 12.36645508 C7.90975137 11.06026915 6.79114296 9.75641187 5.671875 8.453125 C5.61353147 11.68221506 5.57816385 14.91116838 5.546875 18.140625 C5.53011719 19.05263672 5.51335937 19.96464844 5.49609375 20.90429688 C5.37789823 27.43216657 5.37789823 27.43216657 7.671875 33.453125 C9.71293139 34.34005803 9.71293139 34.34005803 11.671875 34.453125 C11.671875 35.113125 11.671875 35.773125 11.671875 36.453125 C1.93663212 36.58812837 -7.62634271 36.2140491 -17.328125 35.453125 C-14.328125 33.453125 -14.328125 33.453125 -12.328125 33.453125 C-12.42158813 29.21688958 -12.52766413 24.98121649 -12.64550781 20.74560547 C-12.68382174 19.3042876 -12.71867043 17.86287332 -12.75 16.42138672 C-12.79559946 14.35088614 -12.85359944 12.28105067 -12.9140625 10.2109375 C-12.9454834 8.9645752 -12.9769043 7.71821289 -13.00927734 6.43408203 C-13.02494809 3.33770724 -13.02494809 3.33770724 -15.328125 1.453125 C-12.12585643 1.17976061 -8.92604802 0.9270161 -5.71875 0.71875 C-2.49042576 0.53054292 -2.49042576 0.53054292 0 0 Z " fill="#F6F9FA" transform="translate(244.328125,80.546875)"/>
<path d="M0 0 C3.06303578 -0.08115993 6.12390815 -0.14057409 9.1875 -0.1875 C10.48397461 -0.22520508 10.48397461 -0.22520508 11.80664062 -0.26367188 C16.72698209 -0.32022752 19.98693063 -0.19276261 24 3 C25 4 25 4 25.3125 7.25 C24.95628972 11.52452339 23.93261437 12.97574144 21 16 C21.78375 16.433125 22.5675 16.86625 23.375 17.3125 C26 19 26 19 28 22 C27.88709677 29.11290323 27.88709677 29.11290323 24.5625 32.4375 C21.29522909 34.42973836 19.64792837 35.12428119 15.8671875 35.09765625 C15.06152344 35.09443359 14.25585938 35.09121094 13.42578125 35.08789062 C12.16314453 35.07532227 12.16314453 35.07532227 10.875 35.0625 C10.02550781 35.05798828 9.17601562 35.05347656 8.30078125 35.04882812 C6.20049091 35.03702874 4.1002367 35.01909306 2 35 C2.99 34.505 2.99 34.505 4 34 C4.09890664 29.64011928 4.17148376 25.28083327 4.21972656 20.92016602 C4.23983759 19.43697739 4.26713074 17.95386801 4.30175781 16.47094727 C4.35030352 14.33850565 4.37297195 12.20711223 4.390625 10.07421875 C4.41157227 8.79119873 4.43251953 7.50817871 4.45410156 6.1862793 C4.32111577 2.90846753 4.32111577 2.90846753 1.97558594 1.05786133 C1.32364258 0.70876709 0.67169922 0.35967285 0 0 Z " fill="#1B609B" transform="translate(204,38)"/>
<path d="M0 0 C3.3 0 6.6 0 10 0 C10.49628906 0.99257813 10.99257813 1.98515625 11.50390625 3.0078125 C11.82939453 3.65862793 12.15488281 4.30944336 12.49023438 4.97998047 C13.20950447 6.4188482 13.9282482 7.85797917 14.64648438 9.29736328 C16.44884158 12.90764052 18.25805376 16.51393026 20.08984375 20.109375 C20.41202881 20.74472168 20.73421387 21.38006836 21.06616211 22.03466797 C21.95821051 23.79264466 22.85401379 25.54871452 23.75 27.3046875 C25 30 25 30 25 32 C25.66 32 26.32 32 27 32 C27.37769531 30.76378906 27.75539063 29.52757812 28.14453125 28.25390625 C30.14991378 22.23775866 32.9059435 16.62623167 35.6875 10.9375 C36.19861328 9.88111328 36.70972656 8.82472656 37.23632812 7.73632812 C38.48603874 5.15515013 39.74067122 2.5764953 41 0 C44.3 0 47.6 0 51 0 C48 2 48 2 46 2 C46.06881974 7.07250914 46.15675694 12.14418939 46.26245117 17.21606445 C46.29571172 18.94155693 46.32374019 20.66715849 46.34643555 22.39282227 C46.37996153 24.87303166 46.43227406 27.3522403 46.48828125 29.83203125 C46.49467117 30.60400345 46.5010611 31.37597565 46.50764465 32.17134094 C46.63048764 36.64290684 46.69438052 37.69438052 50 41 C45.71 41 41.42 41 37 41 C37.99 40.01 38.98 39.02 40 38 C40.41599077 34.70338429 40.41599077 34.70338429 40.29296875 30.92578125 C40.28660149 29.90003242 40.28660149 29.90003242 40.28010559 28.8535614 C40.26333353 26.67280439 40.22568657 24.49297691 40.1875 22.3125 C40.17245114 20.83269565 40.15876308 19.3528768 40.14648438 17.87304688 C40.11343569 14.24839664 40.06166446 10.62428906 40 7 C38.24911907 10.81209603 36.49945768 14.62475063 34.75 18.4375 C34.01330078 20.04141602 34.01330078 20.04141602 33.26171875 21.67773438 C30.46804894 27.76793457 27.70163817 33.86837927 25 40 C24.34 40 23.68 40 23 40 C18.38 30.1 13.76 20.2 9 10 C8.36216813 17.01615054 7.86103796 23.69416459 7.9375 30.6875 C7.94426758 31.90083008 7.94426758 31.90083008 7.95117188 33.13867188 C7.96273288 35.09248151 7.98065596 37.04625193 8 39 C9.32 39.66 10.64 40.32 12 41 C8.04 41 4.08 41 0 41 C0.99 40.01 1.98 39.02 3 38 C5.8686952 30.94787134 5.23220995 22.88859134 5.125 15.4375 C5.11597656 14.23802734 5.10695313 13.03855469 5.09765625 11.80273438 C5.07427412 8.86827691 5.0415028 5.93424766 5 3 C2.525 2.01 2.525 2.01 0 1 C0 0.67 0 0.34 0 0 Z " fill="#125B98" transform="translate(28,32)"/>
<path d="M0 0 C1 1 1 1 1.0534668 3.12963867 C0.94056461 6.14944166 0.82130933 9.16854161 0.6875 12.1875 C0.65205078 13.22970703 0.61660156 14.27191406 0.58007812 15.34570312 C0.04291169 27.95708831 0.04291169 27.95708831 -3 31 C-6.5 31.125 -6.5 31.125 -10 31 C-11 30 -11 30 -11.11352539 27.13256836 C-11.10828857 25.88096924 -11.10305176 24.62937012 -11.09765625 23.33984375 C-11.0962413 22.67537735 -11.09482635 22.01091095 -11.09336853 21.3263092 C-11.08775518 19.19666101 -11.07520054 17.06711661 -11.0625 14.9375 C-11.05748671 13.49674631 -11.05292351 12.05599097 -11.04882812 10.61523438 C-11.03778145 7.07678898 -11.02050792 3.53840461 -11 0 C-6.51395232 -2.05229052 -4.58281428 -1.97894253 0 0 Z " fill="#FDFDFE" transform="translate(125,84)"/>
<path d="M0 0 C0.495 0.99 0.495 0.99 1 2 C-0.33911661 5.9540276 -2.19735619 9.70824696 -3.9375 13.5 C-4.39962891 14.551875 -4.86175781 15.60375 -5.33789062 16.6875 C-8.81629381 24.31450075 -13.03927884 31.03927884 -19 37 C-25.99883933 37 -29.8661035 33.45869016 -35 29 C-31.02542702 25.69422536 -26.68044772 24.24256454 -21.875 22.4765625 C-18.58328505 20.78598064 -17.20612868 18.92300488 -15 16 C-13.10546875 14.8046875 -13.10546875 14.8046875 -11.1875 13.875 C-5.68027726 10.68225736 -3.03809751 5.42110525 0 0 Z " fill="#47A0D7" transform="translate(292,22)"/>
<path d="M0 0 C2.59197246 2.59197246 3.47194267 5.50028951 4.71484375 8.87109375 C5.24140772 10.26372056 5.76810456 11.65629714 6.29492188 13.04882812 C7.11821322 15.24451741 7.93885833 17.44115069 8.7565918 19.63891602 C9.54828049 21.76064171 10.3497923 23.87845771 11.15234375 25.99609375 C11.39307114 26.65242294 11.63379852 27.30875214 11.88182068 27.98497009 C13.22553171 31.51708915 14.25525942 33.25525942 17 36 C13.37 36 9.74 36 6 36 C6.99 35.505 6.99 35.505 8 35 C7.01 31.37 6.02 27.74 5 24 C1.04 24 -2.92 24 -7 24 C-8.31626692 27.61973402 -9 30.09567131 -9 34 C-8.34 34.66 -7.68 35.32 -7 36 C-9.97 36 -12.94 36 -16 36 C-15.39696045 35.14696289 -14.7939209 34.29392578 -14.17260742 33.41503906 C-12.04367322 30.21622368 -10.6185025 26.95343934 -9.23828125 23.359375 C-9.00215622 22.75111877 -8.76603119 22.14286255 -8.52275085 21.51617432 C-7.77916197 19.59667204 -7.04554553 17.67355012 -6.3125 15.75 C-5.80993419 14.44504679 -5.30668477 13.14035663 -4.80273438 11.8359375 C-3.88476121 9.45942082 -2.97010346 7.081619 -2.05981445 4.70214844 C-1 2 -1 2 0 0 Z " fill="#175D99" transform="translate(97,37)"/>
<path d="M0 0 C0.66 0 1.32 0 2 0 C2.43082886 1.12643921 2.43082886 1.12643921 2.87036133 2.27563477 C4.18297322 5.7051408 5.49771763 9.13382552 6.8125 12.5625 C7.49022461 14.33463867 7.49022461 14.33463867 8.18164062 16.14257812 C11.41417302 26.26971401 11.41417302 26.26971401 17 35 C13.7 35 10.4 35 7 35 C7.99 34.505 7.99 34.505 9 34 C8.7834375 33.38511719 8.566875 32.77023438 8.34375 32.13671875 C8.0653125 31.32847656 7.786875 30.52023438 7.5 29.6875 C7.2215625 28.88699219 6.943125 28.08648437 6.65625 27.26171875 C6 25 6 25 6 22 C1.71 22 -2.58 22 -7 22 C-7.66 25.96 -8.32 29.92 -9 34 C-8.34 34.33 -7.68 34.66 -7 35 C-9.97 35 -12.94 35 -16 35 C-15.39696045 34.30994873 -14.7939209 33.61989746 -14.17260742 32.90893555 C-11.86918181 29.82484563 -10.61009533 27.04577439 -9.23828125 23.45703125 C-9.00215622 22.84736008 -8.76603119 22.2376889 -8.52275085 21.60954285 C-7.77754621 19.68032053 -7.04472408 17.74668138 -6.3125 15.8125 C-5.56679459 13.86876029 -4.81861654 11.92598621 -4.07011414 9.98332214 C-3.3960372 8.22974423 -2.72777585 6.47393409 -2.05981445 4.71801758 C-1 2 -1 2 0 0 Z " fill="#175C99" transform="translate(184,38)"/>
<path d="M0 0 C4.29 0 8.58 0 13 0 C12.01 0.66 11.02 1.32 10 2 C9.63469768 5.12557959 9.63469768 5.12557959 9.8125 8.625 C9.83957031 9.81351563 9.86664063 11.00203125 9.89453125 12.2265625 C9.92933594 13.14179687 9.96414063 14.05703125 10 15 C11.63115895 13.42301238 13.25471333 11.83815634 14.875 10.25 C16.23238281 8.92742187 16.23238281 8.92742187 17.6171875 7.578125 C19.64542996 5.38363316 20.88880413 3.7332864 22 1 C21.01 0.67 20.02 0.34 19 0 C22.96 0 26.92 0 31 0 C29.02 0.99 29.02 0.99 27 2 C25.27393777 3.41248063 23.58871518 4.87570657 21.9375 6.375 C20.65166016 7.53128906 20.65166016 7.53128906 19.33984375 8.7109375 C17.30068076 10.70584486 15.62583289 12.66519735 14 15 C14.42410156 15.4846875 14.84820312 15.969375 15.28515625 16.46875 C15.87167969 17.1390625 16.45820313 17.809375 17.0625 18.5 C17.69929688 19.22574219 18.33609375 19.95148438 18.9921875 20.69921875 C20.29725428 22.19471356 21.59460214 23.69699214 22.8828125 25.20703125 C23.47835938 25.90183594 24.07390625 26.59664062 24.6875 27.3125 C25.22761719 27.94800781 25.76773437 28.58351563 26.32421875 29.23828125 C28.07789832 31.08189311 29.92655513 32.53187455 32 34 C24.87362796 34.70421722 24.87362796 34.70421722 20.91796875 31.515625 C19.98472833 30.44680805 19.07467135 29.35735466 18.1875 28.25 C17.72408203 27.71117188 17.26066406 27.17234375 16.78320312 26.6171875 C14.40377275 23.82586717 12.20125657 20.93500876 10 18 C10 22.62 10 27.24 10 32 C11.32 32.66 12.64 33.32 14 34 C9.71 34 5.42 34 1 34 C1.99 33.01 2.98 32.02 4 31 C4.41543958 27.89906261 4.41543958 27.89906261 4.29296875 24.36328125 C4.28330078 23.06455078 4.27363281 21.76582031 4.26367188 20.42773438 C4.23860585 19.05598361 4.21321101 17.68423882 4.1875 16.3125 C4.1724502 14.92905076 4.1587623 13.54558599 4.14648438 12.16210938 C4.11107223 8.77434793 4.06168054 5.38736861 4 2 C2.68 1.34 1.36 0.68 0 0 Z " fill="#045394" transform="translate(280,82)"/>
<path d="M0 0 C0.94875 0.86625 1.8975 1.7325 2.875 2.625 C6.61929045 5.86289051 10.65474064 8.28332858 14.9609375 10.703125 C17 12 17 12 18 14 C18.25952656 17.50360855 18.34292714 20.1641151 17 23.4375 C14.41437704 25.45751794 12.23309347 25.55713926 9.00390625 25.390625 C5.83071235 24.77206868 4.15139284 23.346974 2 21 C1.125 18.8125 1.125 18.8125 1 17 C1.33 16.67 1.66 16.34 2 16 C-0.31 14.02 -2.62 12.04 -5 10 C-3.35 6.7 -1.7 3.4 0 0 Z " fill="#F9FBFC" transform="translate(82,90)"/>
<path d="M0 0 C3.20736986 -0.57274462 4.91938467 -0.83245543 8 0 C10.29080498 2.10493845 11.95761332 4.3899635 13.76953125 6.91796875 C16.76991812 11.06386234 20.12630626 14.86016527 23.49536133 18.70776367 C27 22.78420855 27 22.78420855 27 25 C27.66 25 28.32 25 29 25 C28.94822081 21.394651 28.85316983 17.79171574 28.75 14.1875 C28.73582031 13.16333984 28.72164063 12.13917969 28.70703125 11.08398438 C28.65869141 9.60961914 28.65869141 9.60961914 28.609375 8.10546875 C28.58842773 7.19949951 28.56748047 6.29353027 28.54589844 5.36010742 C28.13519529 2.43034415 28.13519529 2.43034415 24 0 C27.96 0 31.92 0 36 0 C34.68 0.99 33.36 1.98 32 3 C31.35345792 6.28633604 31.35345792 6.28633604 31.390625 10.07421875 C31.37408875 10.7580513 31.35755249 11.44188385 31.34051514 12.1464386 C31.2919968 14.32688336 31.27065809 16.5066307 31.25 18.6875 C31.22184315 20.16735287 31.1919161 21.6471732 31.16015625 23.12695312 C31.08624013 26.75114983 31.03668748 30.37521374 31 34 C30.34 34 29.68 34 29 34 C27.27667551 31.97273821 25.66177516 29.93469514 24.0625 27.8125 C20.09440671 22.6457744 16.03905061 17.58297539 11.8125 12.625 C11.33111572 12.06014893 10.84973145 11.49529785 10.35375977 10.91333008 C9.23787637 9.60714415 8.11926796 8.30328687 7 7 C6.94165647 10.22909006 6.90628885 13.45804338 6.875 16.6875 C6.85824219 17.59951172 6.84148437 18.51152344 6.82421875 19.45117188 C6.6990731 25.98540713 6.6990731 25.98540713 9 32 C9.99 32.66 10.98 33.32 12 34 C8.04 34 4.08 34 0 34 C1.32 32.68 2.64 31.36 4 30 C4.61286809 27.06108655 4.61286809 27.06108655 4.53125 23.80859375 C4.53640625 22.61685547 4.5415625 21.42511719 4.546875 20.19726562 C4.53140625 18.95654297 4.5159375 17.71582031 4.5 16.4375 C4.51546875 15.19291016 4.5309375 13.94832031 4.546875 12.66601562 C4.54171875 11.47556641 4.5365625 10.28511719 4.53125 9.05859375 C4.52673828 7.96861084 4.52222656 6.87862793 4.51757812 5.75561523 C4.2580477 2.86368176 4.2580477 2.86368176 1.96679688 1.12133789 C1.31775391 0.75129639 0.66871094 0.38125488 0 0 Z " fill="#185F9B" transform="translate(243,82)"/>
<path d="M0 0 C0.66 0.33 1.32 0.66 2 1 C1.68804687 1.98484375 1.37609375 2.9696875 1.0546875 3.984375 C-0.10811584 8.0511213 -0.49877672 12.05043156 -0.875 16.25 C-2.71036694 33.50244923 -2.71036694 33.50244923 -9 39.125 C-11.47565311 40.67228319 -13.13294914 41.66918644 -16 42 C-17.32 40.02 -18.64 38.04 -20 36 C-19.50371094 35.45214844 -19.00742187 34.90429688 -18.49609375 34.33984375 C-12.7739392 27.66218711 -9.24316985 20.82005894 -5.79492188 12.83203125 C-4.59091112 10.05718582 -3.32373205 7.31170246 -2.0625 4.5625 C-1.37419454 3.04203103 -0.68634858 1.52135331 0 0 Z " fill="#861E1A" transform="translate(293,22)"/>
<path d="M0 0 C4.29 0 8.58 0 13 0 C12.01 0.66 11.02 1.32 10 2 C9.55078589 4.33655078 9.55078589 4.33655078 9.63671875 7.05078125 C9.63736328 8.05947266 9.63800781 9.06816406 9.63867188 10.10742188 C9.65478516 11.16509766 9.67089844 12.22277344 9.6875 13.3125 C9.68427734 14.35857422 9.68105469 15.40464844 9.67773438 16.48242188 C9.72497574 23.46158918 9.72497574 23.46158918 12 30 C15.45031261 31.72515631 19.22716304 31.49677924 23 31 C26.03215675 28.80168636 26.81654398 27.55036806 28 24 C28.08143855 22.37280518 28.1075302 20.74248281 28.09765625 19.11328125 C28.09282227 17.7065918 28.09282227 17.7065918 28.08789062 16.27148438 C28.07951172 15.29501953 28.07113281 14.31855469 28.0625 13.3125 C28.05798828 12.32443359 28.05347656 11.33636719 28.04882812 10.31835938 C28.03704303 7.87884526 28.02059011 5.43945311 28 3 C26.35 2.34 24.7 1.68 23 1 C23 0.67 23 0.34 23 0 C26.96 0 30.92 0 35 0 C34.01 0.99 33.02 1.98 32 3 C31.09550418 5.71348746 30.85535712 7.43718139 30.7890625 10.23828125 C30.74652344 11.46901367 30.74652344 11.46901367 30.703125 12.72460938 C30.65140174 14.43794228 30.60702571 16.15151413 30.5703125 17.86523438 C30.37933201 22.95406858 29.7941413 26.58167805 27 31 C23.75953856 33.93666818 21.06485065 34.89954239 16.6875 35.3125 C12.24113718 34.93568959 10.36051878 33.90226622 7 31 C2.68486703 24.65059006 3.53581814 17.43048868 3.47265625 10.05859375 C3.45074219 9.05441406 3.42882812 8.05023438 3.40625 7.015625 C3.39916016 6.10071289 3.39207031 5.18580078 3.38476562 4.24316406 C3.25779297 3.50291992 3.13082031 2.76267578 3 2 C2.01 1.34 1.02 0.68 0 0 Z " fill="#23659D" transform="translate(165,82)"/>
<path d="M0 0 C9.57 0 19.14 0 29 0 C29.33 2.97 29.66 5.94 30 9 C28 8 28 8 26.875 5.5 C25.307739 2.85625328 25.307739 2.85625328 23.06689453 2.53710938 C22.34614746 2.47330078 21.62540039 2.40949219 20.8828125 2.34375 C19.60148437 2.2303125 18.32015625 2.116875 17 2 C17.09344448 6.52104123 17.1995163 11.04154113 17.31738281 15.56201172 C17.35570301 17.10034021 17.39055056 18.63875925 17.421875 20.17724609 C17.46746059 22.38672276 17.5254634 24.59557448 17.5859375 26.8046875 C17.59748871 27.49432587 17.60903992 28.18396423 17.62094116 28.89450073 C17.64951022 32.8920154 17.64951022 32.8920154 20 36 C16.37 36 12.74 36 9 36 C9.66 35.34 10.32 34.68 11 34 C11.24501495 31.56823603 11.37324921 29.24135116 11.4140625 26.8046875 C11.43342865 26.09724396 11.4527948 25.38980042 11.4727478 24.66091919 C11.53257652 22.39906915 11.57894101 20.1371683 11.625 17.875 C11.66317686 16.3424256 11.70222842 14.80987272 11.7421875 13.27734375 C11.83828039 9.51840376 11.92229849 5.75936332 12 2 C10.53923927 2.26562701 9.08139992 2.54735668 7.625 2.8359375 C6.40683594 3.06869385 6.40683594 3.06869385 5.1640625 3.30615234 C2.70579276 3.86664777 2.70579276 3.86664777 1 6.625 C0.67 7.40875 0.34 8.1925 0 9 C-0.33 9 -0.66 9 -1 9 C-0.67 6.03 -0.34 3.06 0 0 Z " fill="#386CA1" transform="translate(110,37)"/>
<path d="M0 0 C3.53191322 3.43153914 6.7137505 6.97375062 9.8125 10.8125 C10.60269531 11.78832031 11.39289063 12.76414062 12.20703125 13.76953125 C12.79871094 14.50558594 13.39039062 15.24164063 14 16 C10.51807118 19.91618298 8.29998773 20.7970561 3.19140625 21.17578125 C-0.16084521 20.90688407 -1.78404175 19.42370433 -4 17 C-5.73994279 13.52011442 -5.5976415 9.7956593 -5 6 C-3.57493025 3.54349865 -2.05967593 2.00818403 0 0 Z " fill="#FDFDFD" transform="translate(58,86)"/>
<path d="M0 0 C1.19109375 0.13535156 1.19109375 0.13535156 2.40625 0.2734375 C4.5 0.625 4.5 0.625 6.5 1.625 C6.5 3.935 6.5 6.245 6.5 8.625 C5.860625 7.820625 5.22125 7.01625 4.5625 6.1875 C3.09396498 4.3499496 3.09396498 4.3499496 1.5 2.625 C-3.16560376 2.22943117 -3.16560376 2.22943117 -7.5 3.6875 C-8.73890837 6.08788496 -9.08422236 8.04881339 -8.609375 10.72265625 C-6.42598664 14.46670602 -2.22962572 16.03582439 1.51953125 17.94921875 C4.45320562 19.59868966 6.4142808 20.99302101 8.5 23.625 C9.45784485 27.84102577 8.89713901 31.67186638 7.25 35.625 C5.33578823 37.81267059 4.35278483 38.32988433 1.5 38.625 C1.83 38.109375 2.16 37.59375 2.5 37.0625 C3.87498501 33.71097404 3.88467994 31.21534613 3.5 27.625 C1.30565962 24.38119248 -1.61898497 22.98662332 -5 21.1875 C-8.75991033 19.14002408 -11.49072466 17.55221998 -13.5 13.625 C-13.83268335 10.70807992 -13.56763661 8.36323898 -12.5 5.625 C-8.92240332 1.4044729 -5.45492363 -0.65529927 0 0 Z " fill="#0C5897" transform="translate(95.5,76.375)"/>
<path d="M0 0 C2.64 0 5.28 0 8 0 C13.859375 11.71875 13.859375 11.71875 14.91992188 13.84765625 C15.65775139 15.31797836 16.40425624 16.78397078 17.15820312 18.24609375 C20 23.78935185 20 23.78935185 20 26 C20.66 26 21.32 26 22 26 C22.66 24.68 23.32 23.36 24 22 C23.39301257 26.12751449 21.96189209 29.3321148 20 33 C17.27212538 30.60487755 15.98848496 28.19490777 14.51953125 24.89453125 C14.12096924 24.00870361 13.72240723 23.12287598 13.31176758 22.21020508 C12.56963013 20.52834106 12.56963013 20.52834106 11.8125 18.8125 C10.224375 15.244375 8.63625 11.67625 7 8 C6.67 15.92 6.34 23.84 6 32 C7.65 32.33 9.3 32.66 11 33 C11 33.33 11 33.66 11 34 C7.04 34 3.08 34 -1 34 C-0.01 33.01 0.98 32.02 2 31 C3.50736551 25.62620564 3.50707012 19.92078299 3.8125 14.375 C3.88919922 13.32570313 3.96589844 12.27640625 4.04492188 11.1953125 C4.09841797 10.18984375 4.15191406 9.184375 4.20703125 8.1484375 C4.2635083 7.23239746 4.31998535 6.31635742 4.37817383 5.37255859 C4.22565931 2.82184416 4.22565931 2.82184416 1.98706055 1.17822266 C1.33133057 0.78940918 0.67560059 0.4005957 0 0 Z " fill="#0C5796" transform="translate(121,82)"/>
<path d="M0 0 C4.37958988 -0.29692135 7.02032585 -0.4694272 11 1.4375 C13.54812412 4.70228402 13.67098566 6.8115181 13.41015625 10.87109375 C13 13 13 13 11.5 15.5625 C7.85665449 17.65742367 5.16543193 17.27769546 1 17 C-0.53266582 13.93466836 -0.10276471 10.73245728 -0.0625 7.375 C-0.05798828 6.66859375 -0.05347656 5.9621875 -0.04882812 5.234375 C-0.03703875 3.48954725 -0.01910324 1.744763 0 0 Z " fill="#F9FBFB" transform="translate(213,55)"/>
<path d="M0 0 C4.62 0 9.24 0 14 0 C12.68 1.32 11.36 2.64 10 4 C9.43487104 6.95833331 9.43487104 6.95833331 9.57421875 10.2265625 C9.58259766 11.4228125 9.59097656 12.6190625 9.59960938 13.8515625 C9.62861328 15.09679688 9.65761719 16.34203125 9.6875 17.625 C9.70200195 19.50445312 9.70200195 19.50445312 9.71679688 21.421875 C9.49216425 27.39164173 9.49216425 27.39164173 11 33 C17.11489858 33.62415695 17.11489858 33.62415695 22.4375 31.125 C22.953125 30.42375 23.46875 29.7225 24 29 C24.66 28.34 25.32 27.68 26 27 C25.67 29.64 25.34 32.28 25 35 C17.41 35 9.82 35 2 35 C2.66 34.34 3.32 33.68 4 33 C4.27917295 29.79186374 4.27917295 29.79186374 4.1953125 26.0234375 C4.1924826 25.33819 4.18965271 24.6529425 4.18673706 23.94692993 C4.17553281 21.75610973 4.15042859 19.56569684 4.125 17.375 C4.11497048 15.8906309 4.10584458 14.4062554 4.09765625 12.921875 C4.07559294 9.28111739 4.04106176 5.64059844 4 2 C2.68 1.34 1.36 0.68 0 0 Z " fill="#0A5595" transform="translate(141,38)"/>
<path d="M0 0 C4.29 0 8.58 0 13 0 C12.01 0.66 11.02 1.32 10 2 C9.53187025 5.07116597 9.53187025 5.07116597 9.6015625 8.6875 C9.59869232 9.34580811 9.59582214 10.00411621 9.59286499 10.68237305 C9.59082324 12.07439026 9.59636098 13.46643609 9.60888672 14.85839844 C9.62494122 16.99218747 9.60904437 19.12408255 9.58984375 21.2578125 C9.59182617 22.60937919 9.59566981 23.9609447 9.6015625 25.3125 C9.60494629 26.54613281 9.60833008 27.77976562 9.61181641 29.05078125 C9.73991699 30.02402344 9.86801758 30.99726562 10 32 C10.99 32.66 11.98 33.32 13 34 C8.71 34 4.42 34 0 34 C0.99 33.34 1.98 32.68 3 32 C3.46812975 28.92883403 3.46812975 28.92883403 3.3984375 25.3125 C3.40130768 24.65419189 3.40417786 23.99588379 3.40713501 23.31762695 C3.40917676 21.92560974 3.40363902 20.53356391 3.39111328 19.14160156 C3.37505878 17.00781253 3.39095563 14.87591745 3.41015625 12.7421875 C3.40817383 11.39062081 3.40433019 10.0390553 3.3984375 8.6875 C3.39505371 7.45386719 3.39166992 6.22023438 3.38818359 4.94921875 C3.26008301 3.97597656 3.13198242 3.00273438 3 2 C2.01 1.34 1.02 0.68 0 0 Z " fill="#316EA3" transform="translate(105,82)"/>
<path d="M0 0 C4.62 0 9.24 0 14 0 C12.02 0.99 12.02 0.99 10 2 C9.97534254 6.1117256 9.95716041 10.22342278 9.94506836 14.33520508 C9.9400292 15.73495228 9.93319784 17.1346942 9.92456055 18.53442383 C9.9124768 20.54245777 9.90730193 22.55052957 9.90234375 24.55859375 C9.89710693 25.76829834 9.89187012 26.97800293 9.88647461 28.22436523 C9.68224715 30.90812017 9.68224715 30.90812017 11 32 C16.63319869 32.63568102 16.63319869 32.63568102 21.375 30.125 C21.91125 29.42375 22.4475 28.7225 23 28 C23.66 27.34 24.32 26.68 25 26 C24.67 28.64 24.34 31.28 24 34 C16.08 34 8.16 34 0 34 C1.32 33.01 2.64 32.02 4 31 C4.55352194 27.90442142 4.55352194 27.90442142 4.390625 24.36328125 C4.37773437 23.06455078 4.36484375 21.76582031 4.3515625 20.42773438 C4.31814101 19.05597897 4.28428123 17.68423419 4.25 16.3125 C4.22993376 14.92906188 4.21168319 13.54559616 4.1953125 12.16210938 C4.14809207 8.77404351 4.08224069 5.38736759 4 2 C2.68 1.34 1.36 0.68 0 0 Z " fill="#045293" transform="translate(202,82)"/>
<path d="M0 0 C5.61 0 11.22 0 17 0 C17 0.33 17 0.66 17 1 C14.36 1 11.72 1 9 1 C9.33 11.89 9.66 22.78 10 34 C13.3 33.34 16.6 32.68 20 32 C20.99 32 21.98 32 23 32 C21.39441516 33.92536938 20.52230522 34.91074167 18.00708008 35.34057617 C17.26868896 35.32486572 16.53029785 35.30915527 15.76953125 35.29296875 C14.96708984 35.28330078 14.16464844 35.27363281 13.33789062 35.26367188 C12.50451172 35.23853516 11.67113281 35.21339844 10.8125 35.1875 C9.5450293 35.16719727 9.5450293 35.16719727 8.25195312 35.14648438 C6.16769616 35.11115799 4.08376723 35.05735139 2 35 C2.99 34.505 2.99 34.505 4 34 C4.09890664 29.64011928 4.17148376 25.28083327 4.21972656 20.92016602 C4.23983759 19.43697739 4.26713074 17.95386801 4.30175781 16.47094727 C4.35030352 14.33850565 4.37297195 12.20711223 4.390625 10.07421875 C4.41157227 8.79119873 4.43251953 7.50817871 4.45410156 6.1862793 C4.22932129 4.60907104 4.22932129 4.60907104 4 3 C2.68 2.01 1.36 1.02 0 0 Z " fill="#054F92" transform="translate(204,38)"/>
<path d="M0 0 C6.96809261 6.14949147 9.34394063 18.54883772 12.375 27.0625 C12.74520264 28.08633789 13.11540527 29.11017578 13.49682617 30.16503906 C14.00499878 31.61668457 14.00499878 31.61668457 14.5234375 33.09765625 C14.83200684 33.96914307 15.14057617 34.84062988 15.45849609 35.73852539 C16 38 16 38 15 41 C13.50260417 39.73046875 12.00520833 38.4609375 10.5078125 37.19140625 C8.99405921 35.9121848 8.99405921 35.9121848 7 35 C6.29618843 33.01276732 5.6288189 31.01222047 5 29 C4.67 28.67 4.34 28.34 4 28 C3.78509921 26.50091776 3.6292503 24.99325679 3.5 23.484375 C3.4175 22.56269531 3.335 21.64101563 3.25 20.69140625 C3.1675 19.72074219 3.085 18.75007813 3 17.75 C2.83578901 15.84874464 2.66919661 13.94769317 2.5 12.046875 C2.4278125 11.19963867 2.355625 10.35240234 2.28125 9.47949219 C1.99146214 6.92473046 1.65732036 4.48765485 1 2 C0.34 1.67 -0.32 1.34 -1 1 C-0.67 0.67 -0.34 0.34 0 0 Z " fill="#C53B33" transform="translate(295,22)"/>
<path d="M0 0 C3.96 0 7.92 0 12 0 C10.68 0.99 9.36 1.98 8 3 C7.38208477 5.94404376 7.38208477 5.94404376 7.46875 9.3125 C7.46359375 10.55257812 7.4584375 11.79265625 7.453125 13.0703125 C7.46859375 14.36710937 7.4840625 15.66390625 7.5 17 C7.48453125 18.29679687 7.4690625 19.59359375 7.453125 20.9296875 C7.45828125 22.16976562 7.4634375 23.40984375 7.46875 24.6875 C7.47326172 25.82574219 7.47777344 26.96398437 7.48242188 28.13671875 C7.7602763 31.52907482 7.7602763 31.52907482 12 34 C7.38 34 2.76 34 -2 34 C1 32 1 32 3 32 C2.90653687 27.76376458 2.80046087 23.52809149 2.68261719 19.29248047 C2.64430326 17.8511626 2.60945457 16.40974832 2.578125 14.96826172 C2.53252554 12.89776114 2.47452556 10.82792567 2.4140625 8.7578125 C2.3826416 7.5114502 2.3512207 6.26508789 2.31884766 4.98095703 C2.30317691 1.88458224 2.30317691 1.88458224 0 0 Z " fill="#045293" transform="translate(229,82)"/>
<path d="M0 0 C2.97 0 5.94 0 9 0 C7.02 0.99 7.02 0.99 5 2 C4.9753015 5.95099928 4.95714077 9.90196874 4.94506836 13.85302734 C4.93755964 15.85906551 4.9248553 17.86508202 4.91210938 19.87109375 C4.90888672 21.12792969 4.90566406 22.38476562 4.90234375 23.6796875 C4.89710693 24.84226074 4.89187012 26.00483398 4.88647461 27.20263672 C4.80643717 29.95502192 4.80643717 29.95502192 6 32 C6.99 32.66 7.98 33.32 9 34 C4.71 34 0.42 34 -4 34 C-3.01 33.34 -2.02 32.68 -1 32 C-0.59843694 29.04013296 -0.59843694 29.04013296 -0.7421875 25.56640625 C-0.75636719 24.27798828 -0.77054688 22.98957031 -0.78515625 21.66210938 C-0.81429107 20.29555534 -0.84424807 18.9290186 -0.875 17.5625 C-0.92121058 14.89716218 -0.9575528 12.23194632 -0.9921875 9.56640625 C-1.01651855 8.37990479 -1.04084961 7.19340332 -1.06591797 5.97094727 C-1 3 -1 3 0 0 Z " fill="#115B98" transform="translate(154,82)"/>
<path d="M0 0 C7 0 7 0 9.4375 0.9375 C11.6544379 3.86385803 11.61918631 6.29785925 11.44921875 9.90234375 C11 12 11 12 8.875 14.0625 C6 15 6 15 0 15 C0 10.05 0 5.1 0 0 Z " fill="#F4F6F9" transform="translate(213,39)"/>
<path d="M0 0 C3.96 0 7.92 0 12 0 C10.02 0.99 10.02 0.99 8 2 C6.27393777 3.41248063 4.58871518 4.87570657 2.9375 6.375 C2.08027344 7.14585938 1.22304688 7.91671875 0.33984375 8.7109375 C-1.69931924 10.70584486 -3.37416711 12.66519735 -5 15 C-4.36384766 15.72703125 -4.36384766 15.72703125 -3.71484375 16.46875 C-3.12832031 17.1390625 -2.54179687 17.809375 -1.9375 18.5 C-1.30070312 19.22574219 -0.66390625 19.95148438 -0.0078125 20.69921875 C1.29725428 22.19471356 2.59460214 23.69699214 3.8828125 25.20703125 C4.47835938 25.90183594 5.07390625 26.59664062 5.6875 27.3125 C6.22761719 27.94800781 6.76773437 28.58351563 7.32421875 29.23828125 C9.07789832 31.08189311 10.92655513 32.53187455 13 34 C5.88161959 34.68048964 5.88161959 34.68048964 1.91796875 31.62109375 C0.98483764 30.58004056 0.07475596 29.51791764 -0.8125 28.4375 C-1.50762695 27.66696289 -1.50762695 27.66696289 -2.21679688 26.88085938 C-5.42184139 23.18978522 -7.26824251 19.56240429 -9 15 C-8.30132812 14.32453125 -7.60265625 13.6490625 -6.8828125 12.953125 C-5.97273438 12.06109375 -5.06265625 11.1690625 -4.125 10.25 C-3.22007812 9.36828125 -2.31515625 8.4865625 -1.3828125 7.578125 C0.64542996 5.38363316 1.88880413 3.7332864 3 1 C2.01 0.67 1.02 0.34 0 0 Z " fill="#0B5796" transform="translate(299,82)"/>
<path d="M0 0 C0.33 0.66 0.66 1.32 1 2 C-0.42833748 6.14096432 -2.36316353 10.08275223 -4.1875 14.0625 C-4.68314453 15.18978516 -5.17878906 16.31707031 -5.68945312 17.47851562 C-6.17736328 18.54908203 -6.66527344 19.61964844 -7.16796875 20.72265625 C-7.61422607 21.71015869 -8.0604834 22.69766113 -8.52026367 23.71508789 C-10 26 -10 26 -12.00512695 26.95092773 C-15.20074848 27.02953744 -16.7376738 25.07379901 -19 23 C-17.66453869 18.64683881 -16.20300851 17.15091769 -12.3125 14.875 C-6.39916335 11.00429633 -3.34302715 6.12150335 0 0 Z " fill="#237AB1" transform="translate(292,22)"/>
<path d="M0 0 C0.33 0 0.66 0 1 0 C1.08765069 4.02069425 1.14061018 8.0411401 1.1875 12.0625 C1.21263672 13.19623047 1.23777344 14.32996094 1.26367188 15.49804688 C1.32571906 22.59210822 1.27206685 28.36437017 -3.6875 33.875 C-7.08558237 35.52812115 -10.24052422 35.68671035 -14 36 C-14.33 35.34 -14.66 34.68 -15 34 C-14.46890625 33.731875 -13.9378125 33.46375 -13.390625 33.1875 C-7.75860896 30.06316993 -5.03000438 27.12223545 -3 21 C-1.11517841 14.123257 -0.51231534 7.09152282 0 0 Z " fill="#E26538" transform="translate(292,30)"/>
<path d="M0 0 C0.66 0 1.32 0 2 0 C3.24529841 7.23702111 3.30149329 14.48449145 3.4296875 21.81445312 C3.460625 22.80767578 3.4915625 23.80089844 3.5234375 24.82421875 C3.54325684 25.72229248 3.56307617 26.62036621 3.58349609 27.5456543 C3.89048029 30.48966244 3.89048029 30.48966244 7 34 C3.37 34 -0.26 34 -4 34 C-3.2733313 32.97386597 -3.2733313 32.97386597 -2.53198242 31.92700195 C-0.71161361 28.44900965 -0.57442335 26.07882024 -0.48828125 22.16796875 C-0.45283203 20.87568359 -0.41738281 19.58339844 -0.38085938 18.25195312 C-0.35776319 16.89714066 -0.33498065 15.54232282 -0.3125 14.1875 C-0.27930239 12.81311883 -0.24481047 11.43876829 -0.20898438 10.06445312 C-0.12658736 6.70971766 -0.05740605 3.35524096 0 0 Z " fill="#015294" transform="translate(123,39)"/>
<path d="M0 0 C0.86625 0.3403125 0.86625 0.3403125 1.75 0.6875 C1.42 2.3375 1.09 3.9875 0.75 5.6875 C-0.57 5.6875 -1.89 5.6875 -3.25 5.6875 C-3.25 6.3475 -3.25 7.0075 -3.25 7.6875 C-0.94 7.6875 1.37 7.6875 3.75 7.6875 C1.64285714 13.68475275 1.64285714 13.68475275 -1.25 15.6875 C-3.3125 15.6875 -3.3125 15.6875 -5.25 14.6875 C-7.14638673 11.61715959 -7.24995053 9.68606543 -7.125 6.0625 C-6.25 2.6875 -6.25 2.6875 -4.4375 0.6875 C-2.25 -0.3125 -2.25 -0.3125 0 0 Z " fill="#F9FBFC" transform="translate(66.25,66.3125)"/>
<path d="M0 0 C0.66 0.33 1.32 0.66 2 1 C1.68546875 1.64324219 1.3709375 2.28648438 1.046875 2.94921875 C-1.41141628 8.1397675 -3.45719606 13.23056852 -5.0625 18.75 C-7.4376987 26.72726097 -9.53524276 31.61851206 -17 36 C-17.66 36.66 -18.32 37.32 -19 38 C-19 34.22791359 -18.07200223 33.66530127 -15.6875 30.8125 C-8.70476101 21.58575692 -4.59092468 10.54922378 0 0 Z " fill="#651315" transform="translate(293,22)"/>
<path d="M0 0 C0.66 0 1.32 0 2 0 C2.67057887 1.7902061 3.3363469 3.58221489 4 5.375 C4.556875 6.87160156 4.556875 6.87160156 5.125 8.3984375 C6 11 6 11 6 13 C2.7 13 -0.6 13 -4 13 C-2.93204565 8.49933525 -1.85961414 4.2505466 0 0 Z " fill="#F1F5F7" transform="translate(95,45)"/>
<path d="M0 0 C3.62343383 3.78813537 4.04524538 8.00589889 5 13 C1.7 13 -1.6 13 -5 13 C-4.35780498 11.01964979 -3.71114356 9.04074744 -3.0625 7.0625 C-2.70285156 5.96035156 -2.34320313 4.85820313 -1.97265625 3.72265625 C-1 1 -1 1 0 0 Z " fill="#F4F7F9" transform="translate(183,45)"/>
<path d="M0 0 C0.33 0 0.66 0 1 0 C2.29235715 4.91502758 2.11135517 9.77290102 2.0625 14.8125 C2.05798828 15.69615234 2.05347656 16.57980469 2.04882812 17.49023438 C2.03709866 19.66018559 2.01916495 21.83010172 2 24 C3.65 24.33 5.3 24.66 7 25 C7 25.33 7 25.66 7 26 C3.04 26 -0.92 26 -5 26 C-4.01 25.01 -3.02 24.02 -2 23 C-0.58170023 18.42237381 -0.66671774 13.44846509 -0.4375 8.6875 C-0.37272461 7.43356445 -0.37272461 7.43356445 -0.30664062 6.15429688 C-0.20114693 4.10303065 -0.10012685 2.0515352 0 0 Z " fill="#3B72A5" transform="translate(125,90)"/>
<path d="M0 0 C0.33 0 0.66 0 1 0 C1.02505615 0.80743652 1.0501123 1.61487305 1.07592773 2.44677734 C1.19165487 6.08968917 1.31448635 9.73232726 1.4375 13.375 C1.47681641 14.64601563 1.51613281 15.91703125 1.55664062 17.2265625 C1.59853516 18.43828125 1.64042969 19.65 1.68359375 20.8984375 C1.72025146 22.01911621 1.75690918 23.13979492 1.79467773 24.29443359 C1.82596013 26.96712771 1.82596013 26.96712771 3 29 C3.99 29.66 4.98 30.32 6 31 C1.71 31 -2.58 31 -7 31 C-5.68 29.68 -4.36 28.36 -3 27 C-2.20318682 24.35815459 -2.20318682 24.35815459 -2 22 C-1.67 22 -1.34 22 -1 22 C-0.67 14.74 -0.34 7.48 0 0 Z " fill="#024F92" transform="translate(157,85)"/>
<path d="M0 0 C5.75 1.75 5.75 1.75 8 4 C8.375 7.375 8.375 7.375 8 11 C6 13.4375 6 13.4375 4 15 C3.01 14.67 2.02 14.34 1 14 C1.33 13.67 1.66 13.34 2 13 C2.23820921 10.96729438 2.23820921 10.96729438 2.25 8.625 C2.27578125 7.83351563 2.3015625 7.04203125 2.328125 6.2265625 C1.93070018 3.52975122 1.07493465 2.69270985 -1 1 C-0.67 0.67 -0.34 0.34 0 0 Z " fill="#115A97" transform="translate(221,38)"/>
<path d="M0 0 C0.33 0 0.66 0 1 0 C1.33 8.25 1.66 16.5 2 25 C3.32 25.66 4.64 26.32 6 27 C2.04 27 -1.92 27 -6 27 C-5.01 26.01 -4.02 25.02 -3 24 C-0.64836881 16.16122938 -0.40701455 8.12958018 0 0 Z " fill="#0B5193" transform="translate(34,46)"/>
<path d="M0 0 C2.6875 0.875 2.6875 0.875 5 2 C5.04254356 3.99954746 5.04080783 6.00041636 5 8 C4 9 4 9 0.9375 9.0625 C-0.031875 9.041875 -1.00125 9.02125 -2 9 C-2.33 6.69 -2.66 4.38 -3 2 C-2.01 1.34 -1.02 0.68 0 0 Z " fill="#94AEC9" transform="translate(316,81)"/>
<path d="M0 0 C0.66 0 1.32 0 2 0 C1.66138266 7.80512964 0.67962095 16.53118421 -4.45703125 22.76953125 C-7.03701162 25.03599502 -9.5606956 26.60315718 -13 27 C-13.33 26.34 -13.66 25.68 -14 25 C-13.113125 24.67 -12.22625 24.34 -11.3125 24 C-5.47617587 20.47618166 -2.63115579 14.52462316 -1 8 C-0.58314362 5.33405801 -0.27787448 2.68611999 0 0 Z " fill="#A63327" transform="translate(290,37)"/>
<path d="M0 0 C0.598125 0.20625 1.19625 0.4125 1.8125 0.625 C2.9375 6.375 2.9375 6.375 1.8125 8.625 C-0.18704746 8.66754356 -2.18791636 8.66580783 -4.1875 8.625 C-5.1875 7.625 -5.1875 7.625 -5.4375 4.6875 C-5.355 3.676875 -5.2725 2.66625 -5.1875 1.625 C-2.1875 -0.375 -2.1875 -0.375 0 0 Z " fill="#8BA8C5" transform="translate(238.1875,38.375)"/>
<path d="M0 0 C0.33 0 0.66 0 1 0 C1.45094399 11.1399866 1.92434059 23.30928218 -6 32 C-8.0625 33.375 -8.0625 33.375 -10 34 C-10.99 33.67 -11.98 33.34 -13 33 C-12.0925 32.505 -11.185 32.01 -10.25 31.5 C-4.89147354 27.88552225 -3.14107489 22.28730732 -1.8125 16.1875 C-0.87023274 10.82574911 -0.39202861 5.42650135 0 0 Z " fill="#C74D30" transform="translate(292,30)"/>
<path d="M0 0 C0.33 0 0.66 0 1 0 C1.02505615 0.77714355 1.0501123 1.55428711 1.07592773 2.35498047 C1.19166796 5.86183069 1.31449352 9.36839745 1.4375 12.875 C1.47681641 14.09832031 1.51613281 15.32164063 1.55664062 16.58203125 C1.61948242 18.33193359 1.61948242 18.33193359 1.68359375 20.1171875 C1.72025146 21.19597168 1.75690918 22.27475586 1.79467773 23.38623047 C1.83376643 25.98069536 1.83376643 25.98069536 3 28 C3.99 28.66 4.98 29.32 6 30 C1.71 30 -2.58 30 -7 30 C-3 26 -3 26 -1 25 C-0.67 16.75 -0.34 8.5 0 0 Z " fill="#015193" transform="translate(112,86)"/>
<path d="M0 0 C0.33 0 0.66 0 1 0 C1.01981934 0.70084717 1.03963867 1.40169434 1.06005859 2.1237793 C1.15556166 5.31205162 1.26513871 8.49969147 1.375 11.6875 C1.4059375 12.79029297 1.436875 13.89308594 1.46875 15.02929688 C1.50742188 16.09599609 1.54609375 17.16269531 1.5859375 18.26171875 C1.6173584 19.24100342 1.6487793 20.22028809 1.68115234 21.22924805 C2.02114747 24.18376921 2.6444925 26.35536442 4 29 C4.99 29.66 5.98 30.32 7 31 C3.04 31 -0.92 31 -5 31 C-3.68 29.68 -2.36 28.36 -1 27 C-0.36085024 24.01312126 -0.36085024 24.01312126 -0.390625 20.703125 C-0.35839844 19.49785156 -0.32617188 18.29257813 -0.29296875 17.05078125 C-0.27169922 15.16939453 -0.27169922 15.16939453 -0.25 13.25 C-0.22035156 11.98027344 -0.19070312 10.71054688 -0.16015625 9.40234375 C-0.08946049 6.26816515 -0.03675988 3.13473044 0 0 Z " fill="#054C90" transform="translate(248,85)"/>
<path d="M0 0 C2.97 0 5.94 0 9 0 C9.49940808 6.11774896 8.24900602 9.02495953 5 14 C4.67 14 4.34 14 4 14 C4 10.04 4 6.08 4 2 C2.68 1.34 1.36 0.68 0 0 Z " fill="#9AB0D1" transform="translate(73,85)"/>
<path d="M0 0 C3.96 0 7.92 0 12 0 C10.515 1.485 10.515 1.485 9 3 C8.09455887 5.71632338 7.84296079 7.49932777 7.75390625 10.30859375 C7.72103516 11.13810547 7.68816406 11.96761719 7.65429688 12.82226562 C7.59324057 14.56172089 7.53593114 16.30131184 7.48242188 18.04101562 C7.44826172 18.87181641 7.41410156 19.70261719 7.37890625 20.55859375 C7.3538501 21.31454834 7.32879395 22.07050293 7.30297852 22.84936523 C6.96643188 25.23827683 6.18334193 26.91235876 5 29 C4.67 28.34 4.34 27.68 4 27 C4.33 26.01 4.66 25.02 5 24 C5.08143855 22.37280518 5.1075302 20.74248281 5.09765625 19.11328125 C5.09443359 18.17548828 5.09121094 17.23769531 5.08789062 16.27148438 C5.07951172 15.29501953 5.07113281 14.31855469 5.0625 13.3125 C5.05573242 11.83040039 5.05573242 11.83040039 5.04882812 10.31835938 C5.03704303 7.87884526 5.02059011 5.43945311 5 3 C2.525 2.01 2.525 2.01 0 1 C0 0.67 0 0.34 0 0 Z " fill="#054A90" transform="translate(188,82)"/>
<path d="M0 0 C1.98 1.32 3.96 2.64 6 4 C4.47291037 7.43595166 2.40072955 10.11912454 0 13 C-0.99 12.67 -1.98 12.34 -3 12 C-2.34 12 -1.68 12 -1 12 C-1.01160156 11.21753906 -1.02320313 10.43507813 -1.03515625 9.62890625 C-1.04417969 8.61699219 -1.05320312 7.60507812 -1.0625 6.5625 C-1.07410156 5.55316406 -1.08570313 4.54382812 -1.09765625 3.50390625 C-1 1 -1 1 0 0 Z " fill="#4E83B6" transform="translate(274,45)"/>
<path d="M0 0 C0.99 0.33 1.98 0.66 3 1 C2.67 5.62 2.34 10.24 2 15 C0.35 15 -1.3 15 -3 15 C-3.33 14.34 -3.66 13.68 -4 13 C-3.525625 12.0925 -3.05125 11.185 -2.5625 10.25 C-0.90108415 6.79425504 -0.82491816 4.7642595 -1 1 C-0.67 0.67 -0.34 0.34 0 0 Z " fill="#4F92CB" transform="translate(271,44)"/>
<path d="M0 0 C0.33 0.66 0.66 1.32 1 2 C0.22265625 3.9453125 0.22265625 3.9453125 -0.9375 6.125 C-1.31777344 6.84945312 -1.69804687 7.57390625 -2.08984375 8.3203125 C-2.54037109 9.15175781 -2.54037109 9.15175781 -3 10 C-5.49361571 8.79618552 -7.68143083 7.54571278 -10 6 C-9.67 5.01 -9.34 4.02 -9 3 C-6.93359375 2.05078125 -6.93359375 2.05078125 -4.4375 1.3125 C-3.61121094 1.06113281 -2.78492188 0.80976562 -1.93359375 0.55078125 C-1.29550781 0.36902344 -0.65742188 0.18726563 0 0 Z " fill="#3E2E47" transform="translate(283,39)"/>
<path d="M0 0 C3.96 0 7.92 0 12 0 C10.68 0.99 9.36 1.98 8 3 C7.35836328 5.59905411 7.35836328 5.59905411 7.390625 8.54296875 C7.35839844 9.61611328 7.32617188 10.68925781 7.29296875 11.79492188 C7.27878906 12.91447266 7.26460938 14.03402344 7.25 15.1875 C7.22035156 16.31865234 7.19070313 17.44980469 7.16015625 18.61523438 C7.08939691 21.41022833 7.03673024 24.20438528 7 27 C6.67 27 6.34 27 6 27 C5.98018066 26.38479492 5.96036133 25.76958984 5.93994141 25.13574219 C5.84450273 22.34007458 5.73490045 19.5451349 5.625 16.75 C5.5940625 15.78191406 5.563125 14.81382813 5.53125 13.81640625 C5.49257813 12.88183594 5.45390625 11.94726562 5.4140625 10.984375 C5.3826416 10.12553711 5.3512207 9.26669922 5.31884766 8.38183594 C4.9740874 5.8064293 4.39859921 4.18343736 3 2 C2.01 1.34 1.02 0.68 0 0 Z " fill="#085193" transform="translate(267,82)"/>
<path d="M0 0 C0.5775 0.763125 1.155 1.52625 1.75 2.3125 C5.06348837 6.27027778 7.11518297 8.02756753 12.25 8.6875 C14.10625 8.8421875 14.10625 8.8421875 16 9 C12.27420911 11.48386059 10.41288598 11.3804212 6 11 C3.125 10 3.125 10 1 8 C0.27254263 5.26799342 0.14035232 2.85383056 0 0 Z " fill="#1B5E9A" transform="translate(81,106)"/>
<path d="M0 0 C2.17414876 3.76068974 3.10243907 7.81886196 4.125 12 C4.30675781 12.7115625 4.48851562 13.423125 4.67578125 14.15625 C5.52318391 17.57134644 6 20.45845722 6 24 C5.34 24 4.68 24 4 24 C3.690625 23.030625 3.38125 22.06125 3.0625 21.0625 C2.30476658 18.15934208 2.30476658 18.15934208 1 17 C0.76298761 14.14122091 0.57780818 11.30116703 0.4375 8.4375 C0.39431641 7.63119141 0.35113281 6.82488281 0.30664062 5.99414062 C0.20024738 3.99631195 0.09959112 1.9981793 0 0 Z " fill="#E25733" transform="translate(298,33)"/>
<path d="M0 0 C3.96 0 7.92 0 12 0 C10.02 0.99 10.02 0.99 8 2 C6.29753478 3.43781918 4.63312534 4.92138212 3 6.4375 C0.09383478 9.12658885 -2.78515916 11.68561226 -6 14 C-4.6512925 11.04196519 -3.10431451 8.79203633 -0.9375 6.375 C0.66378483 4.5818742 1.92328158 3.15343684 3 1 C2.01 0.67 1.02 0.34 0 0 Z " fill="#1B5C99" transform="translate(299,82)"/>
<path d="M0 0 C1.1888206 3.56646181 0.48606921 4.72468822 -1.10742188 7.99609375 C-1.42259766 8.61613281 -1.73777344 9.23617187 -2.0625 9.875 C-2.4946582 10.79345703 -2.4946582 10.79345703 -2.93554688 11.73046875 C-5.23041423 16.32020346 -7.89189673 18.93494706 -12 22 C-12 18.0713169 -10.63230974 16.89472191 -8.25 13.8125 C-4.90461937 9.35199249 -2.29591834 5.07015301 0 0 Z " fill="#49111B" transform="translate(286,38)"/>
<path d="M0 0 C0.33 0 0.66 0 1 0 C1.21686645 4.37758788 1.41375794 8.7554762 1.59204102 13.13476562 C1.65553821 14.62491962 1.72452491 16.11485011 1.79907227 17.60449219 C1.90518271 19.74379266 1.99163253 21.88311605 2.07421875 24.0234375 C2.13182373 25.31169434 2.18942871 26.59995117 2.2487793 27.92724609 C2.16668213 28.94125488 2.08458496 29.95526367 2 31 C1.01 31.66 0.02 32.32 -1 33 C-0.67 22.11 -0.34 11.22 0 0 Z " fill="#EB7D3B" transform="translate(293,26)"/>
<path d="M0 0 C0.99 0 1.98 0 3 0 C1.58707905 4.8274799 -0.42974154 8.7162359 -3 13 C-3.33 12.34 -3.66 11.68 -4 11 C-3.06421005 8.64018187 -2.06652192 6.30368736 -1 4 C-1.5775 4.350625 -2.155 4.70125 -2.75 5.0625 C-5.39786506 6.16577711 -6.33185326 5.80156509 -9 5 C-8.43410156 4.72285156 -7.86820312 4.44570313 -7.28515625 4.16015625 C-6.55167969 3.79792969 -5.81820313 3.43570313 -5.0625 3.0625 C-3.96615234 2.52302734 -3.96615234 2.52302734 -2.84765625 1.97265625 C-1.03750973 1.13628173 -1.03750973 1.13628173 0 0 Z " fill="#325B86" transform="translate(284,36)"/>
<path d="M0 0 C2.42581871 2.42581871 2.96355664 4.07433869 3.09765625 7.48046875 C3.08605469 8.37378906 3.07445312 9.26710938 3.0625 10.1875 C3.05347656 11.08855469 3.04445313 11.98960938 3.03515625 12.91796875 C3.02355469 13.60503906 3.01195312 14.29210938 3 15 C2.01 15.495 2.01 15.495 1 16 C-0.14077657 12.57767028 -0.09815117 9.91326783 -0.0625 6.3125 C-0.05347656 5.13300781 -0.04445313 3.95351563 -0.03515625 2.73828125 C-0.02355469 1.83464844 -0.01195312 0.93101563 0 0 Z " fill="#EFCD3D" transform="translate(294,25)"/>
<path d="M0 0 C1.19109375 0.13535156 1.19109375 0.13535156 2.40625 0.2734375 C4.5 0.625 4.5 0.625 6.5 1.625 C6.5 3.935 6.5 6.245 6.5 8.625 C5.860625 7.820625 5.22125 7.01625 4.5625 6.1875 C3.09396498 4.3499496 3.09396498 4.3499496 1.5 2.625 C-1.17058851 2.48384839 -3.82432238 2.58252893 -6.5 2.625 C-6.5 1.965 -6.5 1.305 -6.5 0.625 C-4.01458657 -0.61770671 -2.73584621 -0.32865685 0 0 Z " fill="#25649D" transform="translate(95.5,76.375)"/>
<path d="M0 0 C0 0.66 0 1.32 0 2 C-0.99 2 -1.98 2 -3 2 C-3 3.32 -3 4.64 -3 6 C-2.34 6.33 -1.68 6.66 -1 7 C-2.65 6.67 -4.3 6.34 -6 6 C-6 4.02 -6 2.04 -6 0 C-3.50907189 -1.24546405 -2.58919267 -0.7767578 0 0 Z " fill="#B5C8D9" transform="translate(240,39)"/>
<path d="M0 0 C6.75 1.75 6.75 1.75 9 4 C6 6 6 6 3.9375 5.9375 C2 5 2 5 0.75 2.4375 C0.5025 1.633125 0.255 0.82875 0 0 Z " fill="#F3B844" transform="translate(278,67)"/>
<path d="M0 0 C1.08174162 3.36541838 0.92538169 4.29847322 0 8 C-3.96 8 -7.92 8 -12 8 C-12 7.67 -12 7.34 -12 7 C-11.38511719 6.91363281 -10.77023438 6.82726562 -10.13671875 6.73828125 C-4.79246389 5.92508804 -4.79246389 5.92508804 -0.9375 2.375 C-0.628125 1.59125 -0.31875 0.8075 0 0 Z " fill="#185997" transform="translate(166,65)"/>
<path d="M0 0 C3.3 0 6.6 0 10 0 C10.33 0.99 10.66 1.98 11 3 C8.83032311 3.95465783 7.43671207 4.14401212 5.17578125 3.3984375 C3.4315257 2.64129615 1.71372869 1.82390802 0 1 C0 0.67 0 0.34 0 0 Z " fill="#F0953F" transform="translate(278,66)"/>
<path d="M0 0 C2.475 0.99 2.475 0.99 5 2 C4.19152271 3.16945792 3.37810888 4.33550461 2.5625 5.5 C2.11003906 6.1496875 1.65757813 6.799375 1.19140625 7.46875 C0.79824219 7.9740625 0.40507813 8.479375 0 9 C-0.33 9 -0.66 9 -1 9 C-0.67 6.03 -0.34 3.06 0 0 Z " fill="#26649D" transform="translate(110,37)"/>
<path d="M0 0 C3.96 0 7.92 0 12 0 C10.515 1.485 10.515 1.485 9 3 C5.40209126 2.72323779 3.29789707 1.64894853 0 0 Z " fill="#155796" transform="translate(188,82)"/>
<path d="M0 0 C1.98 0 3.96 0 6 0 C5.34 1.65 4.68 3.3 4 5 C2.68 4.34 1.36 3.68 0 3 C0 2.01 0 1.02 0 0 Z " fill="#471829" transform="translate(276,44)"/>
<path d="M0 0 C0.66 0.33 1.32 0.66 2 1 C1.01 3.31 0.02 5.62 -1 8 C-1.99 8 -2.98 8 -4 8 C-3.50168276 4.31245243 -2.89932357 2.39509338 0 0 Z " fill="#044E92" transform="translate(87,78)"/>
<path d="M0 0 C1.32 1.65 2.64 3.3 4 5 C1.03 5 -1.94 5 -5 5 C-4.01 4.01 -3.02 3.02 -2 2 C-1.34 2 -0.68 2 0 2 C0 1.34 0 0.68 0 0 Z " fill="#084F92" transform="translate(86,68)"/>
<path d="M0 0 C1.32 0.33 2.64 0.66 4 1 C2.02 3.31 0.04 5.62 -2 8 C-2.99 7.67 -3.98 7.34 -5 7 C-4.360625 6.5875 -3.72125 6.175 -3.0625 5.75 C-0.79009069 3.82189513 -0.39803561 2.88575819 0 0 Z " fill="#2973A7" transform="translate(276,50)"/>
<path d="M0 0 C-0.33 0.66 -0.66 1.32 -1 2 C-3.31 2 -5.62 2 -8 2 C-8.33 1.34 -8.66 0.68 -9 0 C-5.93109813 -1.53445094 -3.29905734 -0.54984289 0 0 Z " fill="#24629C" transform="translate(186,115)"/>
<path d="M0 0 C0.33 0.66 0.66 1.32 1 2 C4.3 2 7.6 2 11 2 C11 2.33 11 2.66 11 3 C9.95199219 3.07347656 9.95199219 3.07347656 8.8828125 3.1484375 C7.97273437 3.22320312 7.06265625 3.29796875 6.125 3.375 C5.22007812 3.44460937 4.31515625 3.51421875 3.3828125 3.5859375 C0.82058097 3.79568132 0.82058097 3.79568132 -1 6 C-0.67 4.02 -0.34 2.04 0 0 Z " fill="#075294" transform="translate(177,56)"/>
<path d="M0 0 C1.485 0.99 1.485 0.99 3 2 C3.1875 4.625 3.1875 4.625 3 7 C2.01 7 1.02 7 0 7 C0 4.69 0 2.38 0 0 Z " fill="#EC793A" transform="translate(299,50)"/>
<path d="M0 0 C0.99 0.495 0.99 0.495 2 1 C1.67 1.66 1.34 2.32 1 3 C2.32 2.01 3.64 1.02 5 0 C4.67 1.65 4.34 3.3 4 5 C2.68 5 1.36 5 0 5 C0 3.35 0 1.7 0 0 Z " fill="#C5D3E1" transform="translate(315,84)"/>
</svg>
